<svg width="102" height="64" viewBox="0 0 102 64" fill="none" xmlns="http://www.w3.org/2000/svg">
<path d="M14.7011 54.2091L16.376 53.3969C14.9438 54.124 12.3871 51.8191 12.3871 51.8191L10.7891 51.6489L9.91719 52.451L8.91897 51.337L7.52028 51.4241L5.80003 52.0986L8.89727 48.6999L10.1145 50.0002L9.79685 48.4609L4.87284 45.8197C5.658 43.7375 8.42775 37.0394 8.42775 37.0394C8.50666 34.9754 4.59073 33.2315 4.59073 33.2315L2.65348 32.7252L2.75804 31.437L3.28279 26.1242L2.34573 24.7753L0.836568 33.6306L2.37532 36.4662L1.04174 42.7349L3.6083 52.6293C3.6083 52.6293 6.21431 61.9139 6.79825 62.2177C7.00539 62.3251 7.2145 62.4284 7.41967 62.5276C11.5605 64.8083 12.8191 63.7591 12.8191 63.7591V62.163C11.5487 62.3939 10.5524 62.3676 9.78501 62.2238L8.5185 59.3375L10.7832 57.5531L12.8625 56.5627L11.7538 55.7262L7.86157 55.394L5.8533 54.0552L7.3309 53.3685L14.7011 54.2091Z" fill="black"/>
<path d="M12.1721 5.53353C13.1802 5.53353 14.1626 5.63886 15.1036 5.84748C7.16325 8.28207 4.31853 13.1816 3.33412 16.9064C2.76596 19.0656 2.74821 21.0647 2.83304 22.363C2.87249 22.9747 2.93957 23.4871 2.99875 23.874C1.53101 21.488 0.641299 19.1992 0.359194 17.0664C0.0830076 14.9741 0.38484 13.056 1.26075 11.3628C2.18992 9.5662 3.75629 8.07142 5.78823 7.03236C6.74108 6.54423 7.78072 6.1675 8.8756 5.91432C9.9547 5.66114 11.0654 5.53353 12.1721 5.53353ZM12.1721 5.37352C3.92989 5.37352 -4.74039 12.4221 3.31439 24.6538C3.31439 24.6538 -0.35889 10.3845 15.7152 5.8333C14.5769 5.5234 13.3774 5.37352 12.1721 5.37352Z" fill="black"/>
<path d="M3.56488 25.2209L3.22754 24.7125C-1.01193 18.2696 -0.30568 13.8278 1.03383 11.2372C2.90992 7.61165 7.28156 5.26821 12.1701 5.26821C13.407 5.26821 14.6084 5.42214 15.7368 5.73001L16.0998 5.82926L15.7368 5.93053C7.48475 8.2679 4.57296 13.2221 3.58263 16.9672C2.50748 21.0302 3.39917 24.589 3.40706 24.6234L3.56488 25.2209ZM12.172 5.63684C11.0693 5.63684 9.96846 5.76242 8.89922 6.01357C7.81223 6.26676 6.78048 6.63944 5.83355 7.12555C3.81739 8.15245 2.26877 9.63508 1.35144 11.4114C0.485398 13.0844 0.185538 14.9823 0.459752 17.0523C0.722129 19.0433 1.5211 21.1761 2.83101 23.3939C2.78958 23.0597 2.75605 22.7154 2.73434 22.3711C2.64754 21.0667 2.6653 19.0554 3.2374 16.8801C4.20405 13.2161 6.97973 8.36309 14.6873 5.86774C13.8745 5.71381 13.0322 5.63684 12.172 5.63684Z" fill="black"/>
<path d="M3.4367 24.3196C3.02833 22.5858 2.36549 18.4964 4.10941 14.9438C5.36211 12.3917 7.615 10.5729 10.805 9.53988C14.0087 8.50082 16.5792 7.96408 18.8499 7.49012C23.9179 6.43081 27.2913 5.72596 31.7103 0.322062C31.2132 6.30118 29.7553 9.73432 26.8613 11.7679C24.0343 13.7548 19.925 14.3706 13.9791 15.0815C9.85803 15.5757 6.87719 17.0199 5.11946 19.3714C3.73656 21.2186 3.46629 23.2036 3.4367 24.3196Z" fill="black"/>
<path d="M31.582 0.638016C31.0612 6.38219 29.6171 9.70393 26.804 11.6787C23.9948 13.6515 19.8974 14.2652 13.9653 14.9762C9.81654 15.4744 6.81203 16.9328 5.03655 19.3066C3.90024 20.8257 3.50371 22.4096 3.37745 23.558C3.00066 21.5852 2.68304 18.0832 4.19812 14.9924C5.43899 12.4666 7.67018 10.666 10.8325 9.63911C14.0323 8.60411 16.6009 8.06736 18.8676 7.59341C23.8784 6.54423 27.24 5.84139 31.582 0.638016ZM31.8385 0C25.4073 8.0147 21.4618 5.9771 10.7773 9.44062C-0.49113 13.0905 3.57078 25.1986 3.57078 25.1986C3.57078 25.1986 2.34176 16.5803 13.9889 15.1828C25.6401 13.7893 30.8679 12.7563 31.8385 0Z" fill="black"/>
<path d="M41.8502 8.94641C41.718 9.87609 41.28 12.2519 39.9839 14.6075C39.0193 16.3656 37.7725 17.7652 36.2791 18.7678C34.4148 20.0216 32.1521 20.6596 29.5618 20.6596C28.0981 20.6596 26.5021 20.455 24.8233 20.0519C21.1875 19.179 17.8969 18.7354 15.0482 18.7354C9.6705 18.7354 6.73109 20.3213 5.21009 21.6521C4.22174 22.5169 3.68909 23.3798 3.41882 23.9489C3.36753 22.8106 3.478 21.7493 3.74827 20.7872C4.05405 19.6995 4.57486 18.703 5.29492 17.828C7.13748 15.5838 10.3452 13.9979 15.1015 12.9811C19.2778 12.0919 24.1229 11.7517 28.3959 11.4519C34.4326 11.0265 39.6861 10.6599 41.8502 8.94641ZM42.0534 8.55347C36.6322 14.0384 1.12056 7.28554 3.58059 24.5667C3.58059 24.5667 4.72873 18.8954 15.0482 18.8954C17.676 18.8954 20.8797 19.2681 24.7878 20.2059C26.5514 20.6272 28.1395 20.8176 29.5618 20.8176C41.0611 20.8176 42.0534 8.55347 42.0534 8.55347Z" fill="black"/>
<path d="M3.56284 25.1642L3.47998 24.5809C3.46026 24.4411 3.4425 24.3014 3.42672 24.1636L3.334 24.3601L3.31427 23.951C3.28271 23.2441 3.31427 22.5595 3.40502 21.9133C4.31249 13.0561 17.5537 12.0636 28.1908 11.2656C34.5845 10.7855 40.1063 10.3723 41.9784 8.4745L42.1737 8.27803L42.152 8.55754C42.1422 8.68109 41.0177 20.9168 29.5579 20.9168C28.0764 20.9168 26.4607 20.7102 24.7602 20.3011C21.1441 19.4342 17.8752 18.9947 15.0443 18.9947C4.92602 18.9947 3.68712 24.5282 3.67726 24.5829L3.56284 25.1642ZM3.59835 23.8152C3.60624 23.9104 3.6161 24.0056 3.62597 24.1049C3.8844 23.4547 4.55711 22.1888 6.15505 21.0566C5.81968 21.2834 5.52771 21.5103 5.27322 21.7311C4.38154 22.5149 3.87256 23.2927 3.59835 23.8152ZM3.60821 21.9437C3.56087 22.4217 3.54903 22.924 3.5727 23.4405C3.87848 22.922 4.37167 22.2475 5.14302 21.5751C6.67783 20.2322 9.64092 18.6321 15.0483 18.6321C17.9068 18.6321 21.2033 19.0757 24.845 19.9507C26.5199 20.3517 28.106 20.5543 29.5599 20.5543C32.1324 20.5543 34.3715 19.9223 36.2219 18.6807C37.7034 17.6842 38.9364 16.2988 39.8932 14.5549C41.0788 12.4018 41.5444 10.2204 41.7101 9.17733C39.4138 10.7815 34.2985 11.14 28.3999 11.5532C24.1289 11.8529 19.2897 12.1912 15.1193 13.0824C10.3866 14.0951 7.19469 15.6689 5.36792 17.8949C4.65575 18.7617 4.14283 19.7441 3.84297 20.8156C3.74433 21.1761 3.66345 21.5548 3.60821 21.9437Z" fill="black"/>
<path d="M3.4307 24.3094C3.4307 24.3094 3.50961 24.1454 3.65954 23.8375C3.73451 23.6836 3.82131 23.4932 3.94362 23.2764C4.00478 23.1671 4.0679 23.0516 4.13695 22.926C4.17049 22.8633 4.206 22.8005 4.24348 22.7357C4.28491 22.6708 4.32436 22.606 4.36579 22.5392C4.45062 22.4035 4.53939 22.2617 4.63211 22.1118C4.65579 22.0754 4.67946 22.0389 4.70708 22.0004C4.7347 21.964 4.76034 21.9255 4.78599 21.889C4.83925 21.8141 4.89252 21.7371 4.94776 21.6581C5.00497 21.5791 5.0602 21.5001 5.11741 21.4191C5.17857 21.3401 5.23972 21.2611 5.30483 21.1801C5.36993 21.0991 5.43503 21.016 5.5021 20.933C5.53564 20.8925 5.5672 20.8479 5.60469 20.8074C5.64019 20.7669 5.6757 20.7264 5.71319 20.6859C6.00516 20.3537 6.33263 20.0155 6.70154 19.6853C6.79623 19.6043 6.89093 19.5233 6.98562 19.4403C7.08031 19.3552 7.18684 19.2843 7.28942 19.2053C7.39398 19.1283 7.49854 19.0493 7.60506 18.9703C7.71554 18.8974 7.82996 18.8245 7.94043 18.7496C7.99764 18.7131 8.05485 18.6767 8.11206 18.6382C8.16927 18.5997 8.23043 18.5693 8.29158 18.5369C8.41192 18.468 8.53226 18.3992 8.65457 18.3303C8.77886 18.2635 8.90709 18.2068 9.03729 18.1419C9.10239 18.1116 9.16552 18.0812 9.23062 18.0488C9.29769 18.0184 9.36279 17.9941 9.42987 17.9637C9.56599 17.911 9.70014 17.8543 9.83626 17.7976C9.97632 17.749 10.1184 17.7024 10.2584 17.6538C10.3314 17.6315 10.4005 17.6032 10.4735 17.5829C10.5445 17.5627 10.6194 17.5424 10.6905 17.5242C10.7654 17.5019 10.8384 17.4816 10.9114 17.4614L11.0219 17.429C11.0594 17.4209 11.0969 17.4128 11.1343 17.4026C11.2862 17.3702 11.4362 17.3338 11.5881 17.3014C11.7419 17.269 11.8958 17.2447 12.0517 17.2163C12.1286 17.2021 12.2075 17.188 12.2845 17.1758C12.3653 17.1657 12.4442 17.1555 12.5232 17.1454C12.6021 17.1353 12.681 17.1252 12.7619 17.115C12.8408 17.1029 12.9197 17.0928 13.0006 17.0867C13.1604 17.0725 13.3221 17.0583 13.4859 17.0421C13.6496 17.03 13.8133 17.0259 13.9771 17.0158C14.058 17.0117 14.1408 17.0077 14.2237 17.0057C14.3065 17.0036 14.3914 17.0036 14.4742 17.0016C14.6399 16.9996 14.8076 16.9915 14.9753 16.9955C16.3187 17.0016 17.6977 17.1211 19.0944 17.2811C20.4911 17.4411 21.9056 17.6417 23.3201 17.8098C24.0283 17.8969 24.7345 17.9738 25.4447 18.0326C25.7979 18.065 26.151 18.0872 26.5041 18.1116C26.8572 18.1278 27.2084 18.148 27.5576 18.1521C27.9087 18.1642 28.2559 18.1581 28.6031 18.1581C28.9503 18.146 29.2956 18.1379 29.6369 18.1116C29.8085 18.0974 29.9801 18.0893 30.1478 18.069C30.3175 18.0508 30.4851 18.0346 30.6548 18.0143C30.8225 17.9921 30.9902 17.9657 31.1559 17.9434L31.2802 17.9252L31.4045 17.9009C31.4853 17.8847 31.5662 17.8705 31.6491 17.8563C31.7319 17.8401 31.8128 17.826 31.8937 17.8098C31.9766 17.7956 32.0555 17.7713 32.1363 17.7551C32.2981 17.7166 32.4579 17.6801 32.6157 17.6396C32.9314 17.5465 33.245 17.4634 33.5469 17.354C33.8526 17.2568 34.1446 17.1292 34.4366 17.0117C34.4741 16.9976 34.5096 16.9814 34.5451 16.9652L34.6496 16.9165C34.7207 16.8821 34.7897 16.8477 34.8588 16.8153C34.9298 16.7829 34.9988 16.7505 35.0679 16.716C35.1389 16.6836 35.204 16.6431 35.273 16.6066C36.3561 16.0274 37.2951 15.3185 38.0665 14.563C38.1592 14.4678 38.2539 14.3706 38.3446 14.2754C38.3939 14.2288 38.4373 14.1822 38.4847 14.1336C38.5301 14.085 38.5774 14.0424 38.6169 13.9918C38.7885 13.7974 38.9562 13.6049 39.1179 13.4206C39.2698 13.2262 39.4198 13.0378 39.5638 12.8535C39.6407 12.7644 39.7039 12.6692 39.7709 12.576C39.838 12.4828 39.9011 12.3917 39.9643 12.3005C40.0274 12.2094 40.0905 12.1223 40.1536 12.0352C40.2109 11.9441 40.2681 11.8549 40.3233 11.7699C40.4338 11.5957 40.5423 11.4256 40.6429 11.2676C40.7415 11.1015 40.8323 10.9415 40.921 10.7875C40.9644 10.7146 41.0059 10.6397 41.0493 10.5668C41.0907 10.4938 41.1321 10.425 41.1676 10.3521C41.3136 10.0705 41.4458 9.81735 41.5583 9.5986C41.5878 9.54391 41.6135 9.48922 41.6372 9.43859C41.6608 9.38795 41.6845 9.33529 41.7082 9.28871C41.7536 9.19351 41.793 9.10642 41.8285 9.02945C41.9745 8.71955 42.0514 8.55549 42.0514 8.55549C42.0514 8.55549 41.9765 8.72158 41.8364 9.0335C41.8009 9.11047 41.7614 9.19756 41.718 9.29478C41.6963 9.34339 41.6727 9.392 41.651 9.44466C41.6273 9.4953 41.6017 9.54999 41.574 9.6067C41.4636 9.82747 41.3353 10.0827 41.1933 10.3662C41.1598 10.4371 41.1144 10.508 41.0749 10.5809C41.0355 10.6539 40.9921 10.7288 40.9487 10.8058C40.8638 10.9597 40.7731 11.1197 40.6784 11.2878C40.5798 11.4519 40.4732 11.62 40.3628 11.7982C40.3095 11.8853 40.2523 11.9745 40.1951 12.0656C40.1339 12.1547 40.0708 12.2438 40.0116 12.335C39.9465 12.4241 39.8814 12.5193 39.8183 12.6125C39.7532 12.7056 39.69 12.8029 39.6171 12.894C39.4711 13.0803 39.3251 13.2748 39.1732 13.4692C39.0114 13.6576 38.8477 13.85 38.676 14.0465C38.6346 14.0971 38.5892 14.1437 38.5419 14.1903C38.4965 14.2369 38.4511 14.2855 38.4058 14.3341C38.3131 14.4293 38.2184 14.5245 38.1256 14.6237C37.3543 15.3914 36.4133 16.1145 35.3263 16.7079C35.2573 16.7424 35.1902 16.7849 35.1211 16.8193C35.0501 16.8538 34.9811 16.8882 34.91 16.9206C34.841 16.955 34.77 16.9895 34.697 17.0239L34.5924 17.0766C34.5569 17.0928 34.5194 17.109 34.4839 17.1231C34.19 17.2447 33.898 17.3763 33.5883 17.4776C33.2845 17.593 32.9688 17.6761 32.6532 17.7713C32.4914 17.8118 32.3297 17.8503 32.1679 17.8888C32.087 17.907 32.0061 17.9293 31.9233 17.9455C31.8424 17.9617 31.7596 17.9759 31.6767 17.9921C31.5938 18.0083 31.513 18.0224 31.4301 18.0407L31.3058 18.065L31.1796 18.0812C31.0119 18.1055 30.8442 18.1318 30.6745 18.1561C30.5068 18.1764 30.3352 18.1946 30.1656 18.2108C29.9959 18.2331 29.8223 18.2412 29.6507 18.2533C29.3074 18.2817 28.9582 18.2898 28.609 18.3019C28.2618 18.3019 27.9107 18.31 27.5595 18.2979C27.2064 18.2959 26.8553 18.2756 26.5002 18.2594C26.147 18.2371 25.7919 18.2149 25.4368 18.1824C24.7286 18.1257 24.0165 18.0488 23.3082 17.9637C21.8898 17.7915 20.4773 17.587 19.0846 17.4249C17.6898 17.2609 16.3148 17.1393 14.9812 17.1312C14.8135 17.1272 14.6478 17.1353 14.4821 17.1353C14.3993 17.1373 14.3164 17.1373 14.2355 17.1393C14.1527 17.1393 14.0718 17.1454 13.9889 17.1495C13.8272 17.1576 13.6634 17.1636 13.5016 17.1738C13.3399 17.188 13.1801 17.2021 13.0203 17.2123C12.9414 17.2183 12.8625 17.2264 12.7816 17.2386C12.7027 17.2487 12.6238 17.2568 12.5449 17.269C12.4659 17.2771 12.389 17.2892 12.3081 17.2973C12.2312 17.3075 12.1543 17.3216 12.0773 17.3358C11.9215 17.3621 11.7676 17.3844 11.6157 17.4148C11.4638 17.4492 11.3139 17.4796 11.1659 17.512C11.1284 17.5201 11.089 17.5262 11.0535 17.5384L10.943 17.5687C10.87 17.587 10.797 17.6092 10.726 17.6275C10.651 17.6477 10.58 17.668 10.509 17.6862C10.436 17.7065 10.3669 17.7328 10.2959 17.7551C10.1558 17.8017 10.0158 17.8482 9.87768 17.8948C9.74156 17.9495 9.60544 18.0042 9.4713 18.0569C9.40422 18.0852 9.33715 18.1075 9.27205 18.1379C9.20892 18.1703 9.14382 18.2007 9.08069 18.229C8.95049 18.2918 8.82423 18.3465 8.69995 18.4133C8.57764 18.4802 8.4573 18.547 8.33696 18.6118C8.27778 18.6463 8.21662 18.6767 8.15941 18.7111C8.1022 18.7475 8.04696 18.786 7.98975 18.8225C7.08031 19.3957 6.34052 20.0661 5.75659 20.7224C5.71911 20.7629 5.68162 20.8034 5.64809 20.8439C5.6106 20.8824 5.57904 20.9249 5.54353 20.9674C5.47646 21.0505 5.41135 21.1315 5.34625 21.2105C5.28313 21.2895 5.21802 21.3685 5.1549 21.4475C5.09769 21.5265 5.04048 21.6055 4.98524 21.6824C4.92803 21.7594 4.87476 21.8364 4.8215 21.9113C4.79585 21.9478 4.76626 21.9842 4.74259 22.0207C4.71497 22.0571 4.68932 22.0936 4.66565 22.1321C4.57096 22.2779 4.48218 22.4197 4.39736 22.5554C4.35593 22.6222 4.31253 22.687 4.27307 22.7498C4.23362 22.8146 4.19811 22.8774 4.1626 22.9402C4.09355 23.0638 4.02845 23.1792 3.96729 23.2866C3.84104 23.4992 3.75029 23.6896 3.66941 23.8415C3.51159 24.1474 3.4307 24.3094 3.4307 24.3094Z" fill="black"/>
<path d="M3.51948 24.358L3.33996 24.2649L3.61614 23.6937C3.68125 23.556 3.75621 23.4 3.85682 23.2258C3.916 23.1185 3.97913 23.001 4.04621 22.8795L4.28096 22.4825L4.54729 22.0571C4.57096 22.0187 4.59661 21.9761 4.62422 21.9376L5.45278 20.8257C5.47646 20.7953 5.5021 20.7629 5.52972 20.7345L5.63822 20.613C5.95189 20.2525 6.28726 19.9122 6.63447 19.6043C6.72916 19.5213 6.82583 19.4403 6.92052 19.3572C6.98759 19.2965 7.05861 19.2418 7.13358 19.1871L7.6386 18.8184C7.72146 18.7638 7.80432 18.7111 7.8852 18.6564L8.05683 18.545C8.09628 18.5187 8.13771 18.4964 8.18111 18.4721L8.2403 18.4397C8.36063 18.3688 8.48097 18.2999 8.60526 18.2331C8.68811 18.1885 8.77294 18.148 8.8558 18.1075L9.18525 17.9495C9.22865 17.9293 9.27402 17.911 9.31742 17.8928L9.96843 17.6396L10.3117 17.5222C10.3551 17.506 10.4005 17.4898 10.4458 17.4776L10.6648 17.4168C10.7062 17.4047 10.7516 17.3905 10.799 17.3784L11.1856 17.2811C11.3099 17.2507 11.4381 17.2224 11.5683 17.1961C11.667 17.1738 11.7656 17.1556 11.8682 17.1394L12.5113 17.0381C12.5942 17.0259 12.6711 17.0158 12.75 17.0057C12.8309 16.9955 12.9118 16.9854 12.9946 16.9773L13.478 16.9328C13.5806 16.9267 13.6831 16.9206 13.7857 16.9165L14.058 16.9024C14.1132 16.9003 14.1665 16.8963 14.2237 16.8963L14.6458 16.8882C14.7563 16.8862 14.8668 16.8821 14.9773 16.8862C16.1471 16.8902 17.4215 16.9793 19.1063 17.1718C19.848 17.2568 20.5918 17.352 21.3414 17.4492C22.0023 17.5343 22.6691 17.6214 23.3339 17.7004C24.1112 17.7956 24.8036 17.8685 25.4546 17.9232C25.7643 17.9516 26.0741 17.9738 26.3798 17.9921L26.7645 18.0143C27.0289 18.0265 27.2932 18.0407 27.5576 18.0447C27.7292 18.0488 27.8969 18.0508 28.0646 18.0508L28.7787 18.0427C29.0588 18.0346 29.3488 18.0265 29.6309 18.0022L29.7335 17.9941C29.8696 17.986 30.0038 17.9779 30.1379 17.9597L30.2228 17.9516C30.3628 17.9374 30.5049 17.9232 30.6449 17.907L31.6293 17.749C31.7122 17.7328 31.7951 17.7186 31.8759 17.7024C31.9272 17.6923 31.9746 17.6822 32.0219 17.67L32.308 17.6012C32.4027 17.5789 32.4974 17.5546 32.5921 17.5323L32.8268 17.4654C33.0635 17.3966 33.2904 17.3318 33.5114 17.2507C33.756 17.1738 33.9927 17.0745 34.2196 16.9834L34.3991 16.9105C34.4326 16.8963 34.4681 16.8821 34.5017 16.8659L35.0304 16.6168C35.0698 16.5986 35.1132 16.5743 35.1547 16.552L35.2277 16.5115C36.2555 15.9626 37.1866 15.28 37.9954 14.484L38.4571 14.0141C38.4867 13.9837 38.5143 13.9533 38.5419 13.9209L39.043 13.3477L39.4869 12.7867C39.546 12.7158 39.5954 12.6449 39.6466 12.574L40.0728 11.9724C40.128 11.8874 40.1852 11.7962 40.2404 11.7111L40.56 11.2088L40.9822 10.4756C41.0157 10.4169 41.0493 10.3602 41.0749 10.3035L41.4695 9.54797C41.4971 9.49328 41.5208 9.44265 41.5444 9.39201L41.9587 8.50891L42.1422 8.59803L41.7417 9.48518C41.718 9.53987 41.6904 9.59658 41.6628 9.65329L41.2821 10.4128C41.2584 10.4635 41.2268 10.5161 41.1972 10.5708L41.1637 10.6336C41.1242 10.7045 41.0808 10.7774 41.0414 10.8524L40.7672 11.3405L39.8558 12.7401C39.8045 12.815 39.7532 12.89 39.694 12.9609L39.1653 13.6374L38.751 14.1174C38.7214 14.1559 38.6859 14.1903 38.6524 14.2268L38.1967 14.7007C37.3721 15.523 36.4212 16.2279 35.3697 16.8011L35.2987 16.8396C35.2533 16.8659 35.2079 16.8922 35.1606 16.9145C35.0896 16.949 35.0205 16.9834 34.9495 17.0158L34.6319 17.1718C34.5924 17.19 34.555 17.2062 34.5155 17.2224L34.3478 17.2933C34.1111 17.3925 33.8665 17.4938 33.6139 17.5768C33.3772 17.666 33.1227 17.7409 32.8781 17.8118L32.6729 17.8705C32.5644 17.8969 32.4619 17.9232 32.3573 17.9475L32.089 18.0123C32.0357 18.0245 31.9844 18.0366 31.9312 18.0468L30.6804 18.2594C30.57 18.2716 30.4634 18.2837 30.3549 18.2959L30.1656 18.3161C30.0314 18.3323 29.8953 18.3425 29.7592 18.3526L29.6487 18.3587C29.3784 18.383 29.1003 18.3911 28.8339 18.4012L28.0133 18.4134C27.8574 18.4134 27.7016 18.4113 27.5438 18.4073C27.2597 18.4053 26.9756 18.3911 26.6876 18.3789L26.4173 18.3647C26.0839 18.3445 25.7505 18.3242 25.4171 18.2918C24.7641 18.2392 24.0658 18.1683 23.2865 18.0731C22.6257 17.9941 21.9648 17.907 21.3098 17.8199C20.5562 17.7207 19.8086 17.6214 19.0629 17.5343C17.3919 17.3399 16.1294 17.2487 14.9694 17.2426C14.8569 17.2386 14.7544 17.2426 14.6498 17.2447L14.2257 17.2507C14.1724 17.2507 14.1231 17.2548 14.0718 17.2568L13.8193 17.267C13.7127 17.273 13.6042 17.2771 13.4977 17.2852L13.0163 17.3257C12.9374 17.3297 12.8605 17.3399 12.7836 17.35L12.5468 17.3804C12.4955 17.3865 12.4482 17.3925 12.4008 17.3986L11.9155 17.4756C11.8189 17.4918 11.7202 17.508 11.6256 17.5262L11.1343 17.6336C11.1126 17.6396 11.0909 17.6417 11.0692 17.6498L10.5228 17.7996C10.4774 17.8098 10.432 17.826 10.3886 17.8402L9.49694 18.1642C9.4713 18.1744 9.44368 18.1865 9.41409 18.1966C9.37661 18.2108 9.3411 18.225 9.30361 18.2432L8.98008 18.3972C8.89722 18.4356 8.81437 18.4741 8.73546 18.5167C8.61512 18.5835 8.49478 18.6503 8.37642 18.7172L8.30934 18.7516C8.27383 18.7739 8.23635 18.7901 8.20281 18.8124L8.03316 18.9217C7.22432 19.4322 6.48059 20.0661 5.82366 20.8034L5.71319 20.9249C5.68754 20.9492 5.66782 20.9735 5.65006 20.9978L5.61061 21.0444C5.5455 21.1254 5.47843 21.2065 5.41333 21.2875L4.81164 22.0916C4.78796 22.126 4.76429 22.1625 4.74259 22.1969L4.34607 22.8167C4.32239 22.8572 4.29675 22.9018 4.27307 22.9443L4.04423 23.3494C3.94362 23.5175 3.86668 23.6694 3.79961 23.8031L3.51948 24.358Z" fill="black"/>
<path d="M3.4307 24.3094C3.4307 24.3094 3.48595 24.1413 3.59446 23.8253C3.62208 23.7484 3.64969 23.6613 3.6852 23.562C3.72466 23.4668 3.76411 23.3656 3.80949 23.2501C3.85289 23.1407 3.90221 23.0192 3.9535 22.8896C4.00676 22.762 4.07186 22.6303 4.13697 22.4885C4.1705 22.4197 4.20207 22.3468 4.2356 22.2738C4.25336 22.2354 4.27111 22.1989 4.28887 22.1604C4.3086 22.124 4.3303 22.0875 4.35002 22.049C4.42893 21.8971 4.51574 21.7391 4.60254 21.5751C4.69723 21.413 4.80179 21.251 4.90634 21.0768C4.93396 21.0363 4.95763 20.9897 4.98525 20.9472C5.01484 20.9046 5.04641 20.8641 5.076 20.8196C5.13518 20.7345 5.19634 20.6474 5.25947 20.5583C5.76449 19.8636 6.41945 19.1283 7.26379 18.4964C7.37032 18.4174 7.47685 18.3364 7.58535 18.2574C7.6978 18.1824 7.81222 18.1075 7.92664 18.0326C7.98385 17.9941 8.04106 17.9596 8.09827 17.9212C8.15942 17.8867 8.21861 17.8503 8.27976 17.8158C8.4001 17.747 8.52241 17.6741 8.6467 17.6072C8.90118 17.4816 9.1537 17.3439 9.42396 17.2345C9.68831 17.111 9.96845 17.0097 10.2466 16.9024C10.8148 16.7039 11.4066 16.5297 12.0201 16.3899C12.6336 16.2542 13.2649 16.1428 13.9159 16.0577C14.563 15.9767 15.2239 15.9119 15.8926 15.8714C16.5614 15.8289 17.2381 15.7985 17.9226 15.7863C19.2897 15.7539 20.6805 15.7641 22.0674 15.7661C23.4562 15.7722 24.8411 15.7701 26.2062 15.7195C26.8868 15.6992 27.5635 15.6567 28.2303 15.6061C28.5617 15.5757 28.8951 15.5514 29.2226 15.5109C29.3863 15.4926 29.5481 15.4764 29.7118 15.4542C29.8736 15.4339 30.0354 15.4116 30.1971 15.3893C30.3589 15.3691 30.5187 15.3407 30.6765 15.3185C30.8363 15.2901 30.9941 15.2678 31.152 15.2374C31.4636 15.1787 31.7753 15.124 32.0791 15.0511C32.6927 14.9235 33.2806 14.7594 33.8507 14.5873C34.985 14.2247 36.0286 13.7751 36.9381 13.2667C37.8514 12.7563 38.6346 12.1912 39.2817 11.6382C39.3231 11.6038 39.3646 11.5714 39.406 11.5369C39.4454 11.5025 39.4809 11.466 39.5204 11.4316C39.5954 11.3628 39.6723 11.2919 39.7453 11.225C39.8183 11.1582 39.8913 11.0913 39.9603 11.0265C40.0294 10.9597 40.0965 10.8908 40.1616 10.826C40.2878 10.6923 40.4141 10.5688 40.5324 10.4452C40.6449 10.3176 40.7514 10.1981 40.854 10.0827C41.0631 9.85582 41.2288 9.63302 41.3807 9.45073C41.4537 9.35756 41.5267 9.27249 41.5859 9.18944C41.647 9.10843 41.7003 9.03348 41.7477 8.96664C41.941 8.69726 42.0455 8.55548 42.0455 8.55548C42.0455 8.55548 41.9449 8.69928 41.7555 8.9707C41.7102 9.03753 41.6549 9.1145 41.5957 9.19755C41.5385 9.28059 41.4655 9.36566 41.3945 9.46288C41.2466 9.64922 41.0848 9.87202 40.8777 10.1029C40.7771 10.2204 40.6685 10.3419 40.5581 10.4716C40.4417 10.5971 40.3174 10.7227 40.1892 10.8564C40.1241 10.9232 40.059 10.9941 39.9899 11.063C39.9209 11.1278 39.8499 11.1967 39.7749 11.2635C39.7019 11.3344 39.6289 11.4033 39.552 11.4742C39.5145 11.5106 39.477 11.545 39.4375 11.5815C39.3981 11.6139 39.3567 11.6483 39.3133 11.6848C38.6721 12.2499 37.8909 12.8272 36.9755 13.3477C36.0622 13.8662 35.0205 14.328 33.8783 14.7007C33.3082 14.8789 32.7164 15.0491 32.1008 15.1827C31.7951 15.2557 31.4834 15.3124 31.1677 15.3731C31.0099 15.4035 30.8521 15.4278 30.6923 15.4542C30.5325 15.4785 30.3727 15.5088 30.2109 15.5291C30.0492 15.5514 29.8854 15.5737 29.7237 15.5959C29.5619 15.6162 29.3962 15.6344 29.2325 15.6527C28.905 15.6911 28.5716 15.7195 28.2362 15.7499C27.5694 15.8025 26.8908 15.8451 26.2082 15.8694C24.8411 15.922 23.4503 15.9281 22.0615 15.9241C20.6746 15.918 19.2858 15.9058 17.9206 15.9342C17.2381 15.9463 16.5614 15.9747 15.8946 16.0132C15.2259 16.0537 14.5689 16.1165 13.9238 16.1955C13.2807 16.2765 12.6514 16.3879 12.0398 16.5175C11.4303 16.6512 10.8404 16.8193 10.2782 17.0117C10 17.1171 9.72185 17.2143 9.4575 17.3338C9.18921 17.4431 8.93669 17.5768 8.68418 17.6984C8.5599 17.7632 8.44153 17.8361 8.31922 17.9029C8.26004 17.9353 8.20085 17.9698 8.13772 18.0042C8.08051 18.0427 8.0233 18.0791 7.96609 18.1156C7.85167 18.1885 7.73923 18.2614 7.62678 18.3343C7.52025 18.4133 7.41372 18.4923 7.30719 18.5693C6.4668 19.1911 5.80592 19.9101 5.29498 20.5988C5.23185 20.6859 5.17069 20.771 5.10954 20.856C5.07995 20.8986 5.05233 20.9411 5.02076 20.9816C4.99314 21.0241 4.96553 21.0667 4.93791 21.1092C4.83335 21.2794 4.72682 21.4434 4.63016 21.6014C4.53941 21.7655 4.45261 21.9214 4.36975 22.0733C4.35002 22.1078 4.3303 22.1462 4.30662 22.1827C4.28887 22.2212 4.27309 22.2576 4.25336 22.2941C4.21588 22.369 4.18431 22.4399 4.1488 22.5088C4.08173 22.6506 4.01663 22.7802 3.96139 22.9078C3.9101 23.0354 3.85881 23.1549 3.81343 23.2663C3.76806 23.3777 3.72466 23.481 3.6852 23.5742C3.65167 23.6714 3.6201 23.7585 3.59051 23.8355C3.4899 24.1433 3.4307 24.3094 3.4307 24.3094Z" fill="black"/>
<path d="M3.5254 24.3459L3.33404 24.277L3.8588 22.8511C3.89431 22.764 3.93376 22.681 3.97519 22.5898L4.25927 21.9984L4.51376 21.5244C4.57688 21.4171 4.64199 21.3118 4.70709 21.2044L4.84715 20.9755C4.86491 20.9451 4.88464 20.9148 4.90239 20.8864L5.1766 20.4955C5.77632 19.6691 6.45693 18.9683 7.2046 18.4073L7.52616 18.1683L7.8714 17.9394C7.92861 17.9029 7.98582 17.8665 8.04303 17.828L8.35472 17.6477C8.4356 17.6011 8.51649 17.5545 8.59737 17.51L8.79662 17.4107C8.98601 17.3155 9.18131 17.2163 9.3845 17.1312C9.59953 17.032 9.83035 16.9429 10.0533 16.8598L10.2111 16.7991C10.8148 16.5884 11.4164 16.4162 11.9984 16.2846C12.6119 16.1469 13.2531 16.0334 13.9021 15.9504C14.5729 15.8653 15.2416 15.8025 15.8847 15.762C16.6048 15.7154 17.2716 15.6891 17.9206 15.677C18.6131 15.6608 19.3608 15.6527 20.3452 15.6527C20.7437 15.6527 21.1441 15.6527 21.5426 15.6567H22.0674C22.4146 15.6587 22.7598 15.6587 23.1051 15.6587C24.3558 15.6587 25.3106 15.6446 26.2023 15.6121C26.8099 15.5939 27.453 15.5575 28.2224 15.4987L28.5104 15.4724C28.7452 15.4521 28.9799 15.4319 29.2127 15.4035L29.4021 15.3812C29.5007 15.3711 29.6014 15.361 29.7 15.3468L30.1853 15.282C30.2938 15.2678 30.4023 15.2516 30.5069 15.2354L30.6627 15.2111C30.7239 15.201 30.787 15.1908 30.8521 15.1807C30.9448 15.1645 31.0395 15.1503 31.1302 15.1321L31.3117 15.0977C31.5623 15.0491 31.8109 15.0045 32.0555 14.9478C32.5822 14.8384 33.1247 14.6966 33.8231 14.484C34.9298 14.1315 35.9635 13.69 36.8907 13.1735C37.7291 12.7056 38.5123 12.1608 39.2186 11.5552L39.3428 11.4519C39.3626 11.4336 39.3843 11.4154 39.406 11.3931L39.8933 10.9455C39.9367 10.903 39.9801 10.8584 40.0235 10.8159L40.2602 10.5749C40.3292 10.504 40.3963 10.4371 40.4614 10.3683L40.781 10.0077C40.927 9.84974 41.0513 9.69378 41.1617 9.55605C41.2111 9.49326 41.2584 9.43453 41.3038 9.37781L41.3866 9.27452C41.43 9.22185 41.4695 9.17122 41.505 9.12261L41.5445 9.07197C41.5898 9.01121 41.6313 8.95247 41.6687 8.90183L41.9686 8.49067L42.1323 8.61422L41.6806 9.25629C41.6451 9.30895 41.6036 9.36161 41.5583 9.42035C41.5326 9.45275 41.505 9.48921 41.4774 9.52365C41.434 9.57833 41.3926 9.63099 41.3492 9.68568C41.2347 9.83354 41.1065 10.0017 40.9546 10.1698L40.637 10.5384C40.5561 10.6255 40.4752 10.7106 40.3904 10.7977L40.1852 11.0123C40.1477 11.0508 40.1083 11.0934 40.0669 11.1339L39.5875 11.5856C39.5618 11.6078 39.5382 11.6342 39.5105 11.6564L39.3863 11.7618C38.6682 12.3937 37.8771 12.9568 37.0327 13.4328C36.0898 13.9695 35.0422 14.4273 33.9178 14.7959C33.4403 14.9437 32.8071 15.1321 32.1304 15.28C31.8681 15.3448 31.5938 15.3974 31.3295 15.4461L31.1954 15.4724C31.0868 15.4947 30.9744 15.5109 30.8639 15.5291L30.5818 15.5757C30.4654 15.5959 30.349 15.6142 30.2307 15.6304L29.7454 15.6972C29.6428 15.7114 29.5422 15.7215 29.4416 15.7337L29.2502 15.7539C29.0312 15.7823 28.8083 15.8025 28.5854 15.8228L28.254 15.8532C27.5004 15.9119 26.8336 15.9504 26.2181 15.9727C24.9634 16.0213 23.7166 16.0294 22.6632 16.0294L21.5308 16.0253C20.9784 16.0233 20.428 16.0193 19.8776 16.0193C19.128 16.0193 18.5085 16.0253 17.9305 16.0355C17.2874 16.0476 16.6068 16.0739 15.9084 16.1145C15.2771 16.1529 14.6182 16.2137 13.9455 16.2947C13.3438 16.3697 12.7283 16.475 12.0694 16.6147C11.4934 16.7403 10.9016 16.9064 10.3176 17.1049L10.1519 17.1677C9.92701 17.2507 9.71395 17.3297 9.50681 17.4249C9.30362 17.508 9.10832 17.6032 8.9209 17.6963L8.73349 17.7895C8.66247 17.828 8.58751 17.8705 8.51254 17.9131L8.02724 18.2007L7.63664 18.4579C7.54984 18.5227 7.46106 18.5855 7.37623 18.6503C6.64434 19.1911 5.97557 19.8656 5.38572 20.6555L5.03259 21.1598L4.90831 21.3583C4.84518 21.4576 4.78402 21.5548 4.72879 21.648L4.18825 22.683C4.14682 22.7701 4.10539 22.8572 4.06791 22.9402L3.69703 23.8638L3.5254 24.3459Z" fill="black"/>
<path d="M3.4307 24.3094C3.4307 24.3094 3.46424 24.1373 3.52737 23.8112C3.53526 23.7707 3.54315 23.7261 3.55104 23.6816C3.55893 23.635 3.57077 23.5884 3.58458 23.5377C3.60825 23.4405 3.63587 23.3312 3.66546 23.2157C3.68124 23.157 3.69703 23.0982 3.71083 23.0334C3.71873 23.003 3.72662 22.9706 3.73451 22.9362C3.74634 22.9058 3.75621 22.8734 3.76607 22.841C3.8075 22.7093 3.85287 22.5696 3.90022 22.4217C4.10539 21.8384 4.39341 21.1396 4.85504 20.4125C4.91422 20.3234 4.97143 20.2302 5.03259 20.137C5.09571 20.0479 5.16476 19.9568 5.23183 19.8656C5.26537 19.819 5.30088 19.7724 5.33442 19.7259L5.38768 19.655C5.40346 19.6327 5.42516 19.6104 5.44292 19.5881C5.51986 19.501 5.59482 19.4099 5.67373 19.3187C5.71516 19.2742 5.75067 19.2256 5.79407 19.183C5.83747 19.1385 5.8789 19.0959 5.9223 19.0514C6.0091 18.9643 6.09393 18.8731 6.18468 18.786C6.2774 18.701 6.37406 18.6179 6.46876 18.5329C6.51807 18.4903 6.56542 18.4437 6.61671 18.4032C6.668 18.3607 6.71732 18.3222 6.77059 18.2817C7.17698 17.9495 7.6386 17.6538 8.12785 17.3723C8.25213 17.3054 8.37641 17.2366 8.50267 17.1677C8.6309 17.1049 8.7611 17.0421 8.8913 16.9773C8.95641 16.9469 9.02151 16.9125 9.08858 16.8841C9.15565 16.8558 9.22273 16.8274 9.29178 16.7991C9.35885 16.7687 9.42592 16.7383 9.49497 16.71C9.56204 16.6796 9.63109 16.6512 9.70014 16.6269C9.8402 16.5722 9.98027 16.5216 10.1223 16.4669C10.2643 16.4142 10.4103 16.3697 10.5543 16.319C10.6273 16.2947 10.7003 16.2704 10.7733 16.2461C10.8483 16.2239 10.9213 16.2016 10.9962 16.1793C11.1442 16.1347 11.2941 16.0881 11.4421 16.0476C12.0457 15.8815 12.6691 15.7418 13.3044 15.6142C13.9435 15.4947 14.5946 15.3873 15.2554 15.2982C15.9183 15.2111 16.587 15.1321 17.2657 15.0673C18.619 14.9336 19.996 14.8384 21.373 14.7432C22.7519 14.6541 24.1269 14.565 25.4803 14.4536C26.8336 14.3442 28.1632 14.2025 29.4416 14.0202C29.6033 13.9979 29.7631 13.9716 29.919 13.9472C30.0768 13.9229 30.2346 13.9007 30.3924 13.8743C30.5483 13.848 30.7041 13.8217 30.86 13.7933C30.9369 13.7791 31.0138 13.767 31.0908 13.7528C31.1677 13.7386 31.2447 13.7244 31.3216 13.7103C31.4735 13.6799 31.6254 13.6495 31.7753 13.6211C31.9272 13.5908 32.0752 13.5584 32.2231 13.526C32.523 13.4652 32.813 13.3923 33.101 13.3234C34.2551 13.0439 35.3243 12.6996 36.289 12.3168C37.2497 11.9319 38.1059 11.5086 38.8339 11.0792C38.9207 11.0245 39.0114 10.9698 39.1002 10.9172C39.187 10.8645 39.2738 10.8139 39.3567 10.7592C39.5224 10.6498 39.6802 10.5445 39.8321 10.4432C39.98 10.3359 40.1221 10.2305 40.2562 10.1333C40.3253 10.0847 40.3904 10.0361 40.4555 9.98749C40.5186 9.93686 40.5798 9.88825 40.639 9.83964C40.7573 9.74444 40.8698 9.6533 40.9743 9.5662C41.0769 9.47708 41.1696 9.39201 41.2604 9.31505C41.3491 9.23605 41.43 9.16314 41.505 9.0963C41.58 9.02541 41.6431 8.96262 41.7042 8.9059C41.9351 8.675 42.0593 8.55348 42.0593 8.55348C42.0593 8.55348 41.937 8.67703 41.7082 8.91198C41.649 8.96869 41.5898 9.03756 41.5149 9.10642C41.4399 9.17529 41.359 9.25023 41.2722 9.32922C41.1854 9.41024 41.0927 9.49734 40.9901 9.58848C40.8855 9.67558 40.7751 9.76672 40.6587 9.86597C40.5995 9.91458 40.5383 9.96521 40.4772 10.0159C40.416 10.0665 40.347 10.1151 40.2799 10.1657C40.1458 10.267 40.0057 10.3744 39.8577 10.4817C39.7058 10.585 39.548 10.6944 39.3843 10.8058C39.3014 10.8625 39.2166 10.9172 39.1298 10.9698C39.041 11.0265 38.9522 11.0792 38.8635 11.1359C38.1375 11.5754 37.2853 12.0129 36.3206 12.4059C35.3579 12.7988 34.2847 13.1533 33.1306 13.4429C31.9766 13.7346 30.7456 13.9776 29.4613 14.1619C28.179 14.3483 26.8474 14.4921 25.4921 14.6055C24.1368 14.723 22.7618 14.8141 21.3828 14.9073C20.0058 14.9985 18.6289 15.0896 17.2775 15.2192C16.6009 15.282 15.9321 15.361 15.2732 15.4461C14.6143 15.5332 13.9652 15.6385 13.33 15.756C12.6948 15.8775 12.0773 16.0173 11.4736 16.1793C11.3237 16.2178 11.1758 16.2644 11.0278 16.3049C10.9528 16.3251 10.8818 16.3474 10.8069 16.3697C10.7339 16.392 10.6609 16.4163 10.5899 16.4406C10.4458 16.4892 10.2999 16.5337 10.1598 16.5844C10.0197 16.637 9.87966 16.6897 9.73959 16.7403C9.67055 16.7646 9.6015 16.793 9.53245 16.8214C9.46538 16.8517 9.39633 16.8781 9.33123 16.9064C9.26218 16.9348 9.19511 16.9631 9.13001 16.9915C9.06294 17.0199 8.99783 17.0523 8.93273 17.0826C8.80253 17.1454 8.67233 17.2042 8.54607 17.267C8.41982 17.3338 8.29553 17.4006 8.17125 17.4655C7.68595 17.7409 7.22827 18.0285 6.82188 18.3587C6.77059 18.3972 6.7193 18.4356 6.668 18.4762C6.61671 18.5167 6.57134 18.5592 6.52202 18.6017C6.42733 18.6848 6.33263 18.7678 6.23794 18.8509C6.14917 18.938 6.06237 19.0291 5.97754 19.1121C5.93414 19.1547 5.89074 19.1972 5.84733 19.2418C5.80393 19.2823 5.76842 19.3309 5.727 19.3755C5.64809 19.4646 5.57115 19.5537 5.49421 19.6408C5.47448 19.6631 5.45673 19.6833 5.43897 19.7056L5.38571 19.7745C5.3502 19.819 5.31666 19.8656 5.28115 19.9102C5.21408 20.0013 5.14503 20.0884 5.07993 20.1775C5.01878 20.2687 4.95959 20.3598 4.90041 20.4489C4.43484 21.1619 4.13498 21.8566 3.92587 22.4359C3.87655 22.5817 3.8292 22.7195 3.78777 22.8511C3.77594 22.8835 3.76607 22.9159 3.75424 22.9483C3.74437 22.9807 3.73845 23.0111 3.72859 23.0435C3.71281 23.1063 3.69505 23.1651 3.67927 23.2238C3.64771 23.3413 3.61811 23.4466 3.59247 23.5438C3.57866 23.5924 3.56682 23.641 3.5609 23.6856C3.55104 23.7322 3.54118 23.7747 3.53131 23.8152C3.46819 24.1373 3.4307 24.3094 3.4307 24.3094Z" fill="black"/>
<path d="M3.52935 24.3337L3.3301 24.2912L3.45241 23.6653C3.4603 23.6167 3.47016 23.5661 3.48595 23.5134L3.699 22.7235L3.80356 22.3934C4.0758 21.6156 4.38355 20.9695 4.77021 20.3578C4.82742 20.2687 4.88661 20.1755 4.94776 20.0823C4.98722 20.0236 5.03062 19.9689 5.07007 19.9142L5.42912 19.4524L5.6402 19.2053C5.66585 19.1749 5.69347 19.1405 5.72503 19.1101L5.95387 18.8751C6.00911 18.8205 6.06237 18.7658 6.11761 18.7131L6.45101 18.4154C6.48454 18.383 6.52005 18.3526 6.55754 18.3242L6.71141 18.2027C7.0744 17.905 7.50841 17.6113 8.07853 17.2852L8.45533 17.0786C8.54411 17.034 8.63288 16.9915 8.72165 16.9489L8.88737 16.87C8.94063 16.8436 8.99389 16.8173 9.04913 16.791L9.45552 16.6188C9.52457 16.5884 9.59559 16.558 9.66661 16.5317L10.0868 16.3717C10.1815 16.3373 10.2782 16.3049 10.3748 16.2745L10.5228 16.2238C10.5938 16.1995 10.6688 16.1752 10.7418 16.1509L11.1225 16.0375C11.2211 16.0071 11.3178 15.9808 11.4145 15.9524C11.9609 15.8005 12.5725 15.6587 13.2846 15.517C13.9495 15.3914 14.6064 15.2861 15.2397 15.201C15.9794 15.1038 16.6383 15.0268 17.2519 14.9701C18.5776 14.8384 19.8993 14.7453 21.3631 14.646L21.6985 14.6237C22.9413 14.5427 24.2276 14.4597 25.4704 14.3564C26.8908 14.2409 28.2204 14.0951 29.4258 13.9229C29.5343 13.9087 29.6428 13.8925 29.7513 13.8743L30.0511 13.8277C30.1596 13.8115 30.2662 13.7953 30.3727 13.7771C30.5286 13.7508 30.6844 13.7224 30.8383 13.6961L31.7536 13.5259C31.8562 13.5057 31.9568 13.4834 32.0555 13.4611L32.2015 13.4307C32.4441 13.3801 32.6828 13.3254 32.9176 13.2667L33.0754 13.2302C34.1861 12.9608 35.2513 12.6226 36.2476 12.2256C37.157 11.863 38.0073 11.4499 38.7786 10.9962L39.0884 10.8078C39.1594 10.7653 39.2284 10.7227 39.2935 10.6761L39.7729 10.3602C39.8498 10.3055 39.9288 10.2488 40.0037 10.192L40.2661 9.99963C40.3056 9.96925 40.349 9.93887 40.3864 9.90849L40.9033 9.48922C40.9566 9.44263 41.0118 9.39402 41.0631 9.34744L41.43 9.02134C41.4754 8.97881 41.5188 8.9383 41.5583 8.89779L41.9804 8.48055L42.1225 8.6284L41.7713 8.98893C41.7476 9.01324 41.724 9.03755 41.6983 9.06388C41.6608 9.10236 41.6214 9.14489 41.574 9.18743L41.2387 9.49732C41.1775 9.55403 41.1144 9.61277 41.0473 9.67151C40.9408 9.76063 40.8303 9.85178 40.7139 9.95102L40.5324 10.1009C40.489 10.1353 40.4456 10.1677 40.3983 10.2022L40.2148 10.3419C40.1162 10.4169 40.0136 10.4938 39.909 10.5708L39.4336 10.8949C39.3626 10.9435 39.2856 10.9921 39.2087 11.0407L38.9088 11.225C38.1197 11.7051 37.2616 12.1345 36.3521 12.5031C35.352 12.9102 34.2748 13.2606 33.1484 13.5442C31.9766 13.8399 30.7396 14.0809 29.4711 14.2652C28.252 14.4414 26.9519 14.5873 25.496 14.7088C24.2453 14.8182 22.9531 14.9032 21.7024 14.9883L21.3828 15.0106C20.0315 15.0997 18.6328 15.1929 17.2834 15.3225C16.6699 15.3792 16.0169 15.4542 15.2811 15.5494C14.6577 15.6324 14.0067 15.7357 13.3438 15.8572C12.6731 15.9889 12.0694 16.1246 11.4973 16.2785C11.4105 16.3008 11.3257 16.3251 11.2409 16.3494C11.1777 16.3676 11.1146 16.3859 11.0515 16.4021L10.4952 16.5783C10.3926 16.6107 10.2939 16.6431 10.1914 16.6796L9.77314 16.8355C9.70409 16.8598 9.63899 16.8862 9.57389 16.9145C9.51273 16.9408 9.45355 16.9651 9.39239 16.9915L9.16947 17.0867C9.12015 17.109 9.0728 17.1292 9.02546 17.1535L8.84791 17.2345C8.76111 17.2771 8.67431 17.3176 8.58948 17.3601L8.2186 17.5586C7.66228 17.8726 7.23814 18.1521 6.88501 18.4397L6.73114 18.5572C6.70155 18.5815 6.67196 18.6078 6.64434 18.6321L6.5891 18.6807C6.49441 18.7658 6.39971 18.8468 6.30699 18.9298C6.25373 18.9825 6.19652 19.0392 6.14128 19.0959L5.91836 19.3126C5.89271 19.339 5.86904 19.3673 5.84734 19.3937L5.54748 19.7339C5.53762 19.7461 5.52775 19.7562 5.51789 19.7663L5.4666 19.8352C5.43898 19.8717 5.41136 19.9061 5.38572 19.9405L5.29102 20.0661C5.24762 20.1228 5.20422 20.1795 5.16279 20.2362L4.98524 20.5036C4.60647 21.0869 4.29083 21.729 4.02254 22.4683L3.77002 23.2825L3.69111 23.5681C3.67928 23.6147 3.66941 23.6593 3.66152 23.7018L3.52935 24.3337Z" fill="black"/>
<path d="M15.7131 5.83328C15.7131 5.83328 15.6105 5.84138 15.4211 5.86569C15.2337 5.88797 14.9575 5.92848 14.6044 5.98721C14.2552 6.04798 13.8311 6.13102 13.3497 6.24444C12.8684 6.3599 12.3278 6.50573 11.7459 6.68802C11.1639 6.87436 10.5425 7.09716 9.90135 7.37465C9.57781 7.51238 9.25625 7.67036 8.9268 7.8324C8.60327 8.00456 8.26987 8.17672 7.94437 8.37522C7.86151 8.4218 7.77865 8.47244 7.69777 8.5251C7.61492 8.57776 7.53206 8.62637 7.45315 8.68106C7.29138 8.78841 7.12764 8.89576 6.96982 9.01121C6.80806 9.12463 6.65221 9.24616 6.49439 9.36769C6.4135 9.42845 6.34051 9.49326 6.2616 9.55605C6.18269 9.61884 6.10575 9.68163 6.03079 9.75049C5.95582 9.81734 5.88086 9.88417 5.80392 9.94899C5.72896 10.0179 5.65794 10.0887 5.58297 10.1576L5.4725 10.2629L5.364 10.3723L5.15291 10.5911L4.94577 10.8179C4.91223 10.8564 4.87672 10.8949 4.84319 10.9334L4.74455 11.0508C4.67945 11.1298 4.61435 11.2068 4.54925 11.2878L4.36381 11.5329C4.2987 11.6139 4.24149 11.6969 4.18231 11.78C4.12313 11.8651 4.06395 11.9481 4.00674 12.0332L3.84102 12.2904C3.81538 12.337 3.78579 12.3775 3.76014 12.4221L3.68518 12.5578C3.63388 12.6469 3.58456 12.734 3.53327 12.8231C3.48593 12.9142 3.43858 13.0074 3.39321 13.0965L3.32416 13.2322L3.26103 13.372C3.21763 13.4652 3.17818 13.5563 3.1328 13.6495C2.80927 14.3948 2.58043 15.1665 2.42853 15.9281C2.28057 16.6897 2.20561 17.4411 2.1839 18.1541C2.1701 18.5126 2.17996 18.8589 2.18785 19.1952C2.19771 19.3633 2.20758 19.5273 2.21744 19.6894C2.21941 19.7299 2.22139 19.7704 2.22533 19.8089C2.22928 19.8494 2.23125 19.8899 2.23717 19.9284C2.24506 20.0074 2.25098 20.0843 2.25887 20.1633C2.31608 20.7851 2.40683 21.3502 2.49363 21.8505C2.539 22.0997 2.58832 22.3326 2.63172 22.5473C2.65145 22.6567 2.6771 22.7579 2.70077 22.8572C2.72444 22.9544 2.74614 23.0476 2.76784 23.1367C2.84873 23.4932 2.92764 23.7686 2.97695 23.957C3.02825 24.1474 3.05389 24.2466 3.05389 24.2466C3.05389 24.2466 3.0243 24.1474 2.96906 23.959C2.9158 23.7727 2.82505 23.4992 2.74022 23.1468C2.71655 23.0597 2.69288 22.9645 2.66723 22.8693C2.64356 22.7721 2.61594 22.6708 2.59227 22.5615C2.54689 22.3468 2.48968 22.1138 2.43839 21.8647C2.41472 21.7411 2.39104 21.6115 2.3654 21.4799C2.33975 21.3442 2.31213 21.2105 2.29438 21.0667C2.25295 20.7851 2.20561 20.4894 2.17404 20.1775C2.16615 20.0985 2.15629 20.0215 2.1484 19.9405C2.14445 19.902 2.13853 19.8595 2.13459 19.819C2.13261 19.7805 2.12867 19.74 2.12669 19.6995C2.11486 19.5354 2.10302 19.3693 2.09316 19.1992C2.07935 18.863 2.06554 18.5126 2.07738 18.1521C2.08724 17.431 2.15234 16.6715 2.30227 15.9018C2.4522 15.1281 2.67907 14.3462 3.00655 13.5887C3.04797 13.4955 3.09137 13.4004 3.1328 13.3072L3.1979 13.1654L3.26892 13.0277C3.31627 12.9365 3.36362 12.8413 3.41096 12.7502C3.46225 12.659 3.51157 12.5699 3.56484 12.4767L3.64178 12.3431C3.66742 12.2965 3.69701 12.256 3.72266 12.2094L3.89034 11.9461C3.94755 11.859 4.00871 11.7739 4.06789 11.6868C4.12707 11.6018 4.18626 11.5167 4.25136 11.4336L4.44272 11.1865C4.50782 11.1055 4.57489 11.0265 4.64196 10.9455L4.74258 10.826C4.77611 10.7855 4.81162 10.749 4.84516 10.7106L5.05427 10.4817L5.27128 10.2609L5.37978 10.1495L5.49025 10.0442C5.56522 9.9733 5.64018 9.90443 5.71515 9.83556C5.79406 9.7667 5.86902 9.70189 5.94596 9.63302C6.02093 9.56415 6.10181 9.50136 6.17875 9.43858C6.25766 9.37376 6.33459 9.30895 6.41548 9.24818C6.57527 9.12666 6.73506 9.00311 6.8988 8.88968C7.06057 8.7722 7.22431 8.66688 7.38805 8.55751C7.46893 8.50282 7.55376 8.45218 7.63464 8.40155C7.7175 8.34889 7.79838 8.29825 7.88321 8.25166C7.96607 8.20305 8.04892 8.15444 8.13178 8.10786C8.21463 8.06127 8.29946 8.01469 8.38232 7.97013C8.54606 7.87696 8.71572 7.79594 8.87946 7.71087C9.21482 7.55086 9.54033 7.39692 9.86584 7.26325C10.5129 6.98981 11.1442 6.77714 11.7281 6.59687C12.314 6.41863 12.8605 6.28698 13.3458 6.18166C13.8311 6.07836 14.2572 6.00544 14.6084 5.95278C14.9615 5.90012 15.2396 5.86974 15.429 5.85151C15.6105 5.83733 15.7131 5.83328 15.7131 5.83328Z" fill="black"/>
<path d="M2.95132 24.279L2.8152 23.8213C2.76193 23.6491 2.6988 23.4344 2.6337 23.1711L2.55479 22.8632C2.53112 22.7741 2.50745 22.681 2.48575 22.5837C2.46799 22.5027 2.44826 22.4177 2.42854 22.3306C2.39697 22.1908 2.36343 22.0429 2.3299 21.889L2.25099 21.4637C2.22731 21.3401 2.20364 21.2145 2.18391 21.0849L2.16813 20.9735C2.13065 20.7224 2.09119 20.4611 2.06752 20.1876C2.05963 20.1107 2.04977 20.0317 2.04187 19.9527L1.98072 19.1141C1.96888 18.8022 1.95705 18.4802 1.96691 18.15C1.97875 17.352 2.05568 16.5884 2.19378 15.8815C2.35357 15.0592 2.59227 14.2733 2.90397 13.5462L3.31233 12.7036L3.54512 12.2904C3.5609 12.2641 3.57668 12.2377 3.59444 12.2114L3.79566 11.8914C3.83511 11.8306 3.87654 11.7719 3.91797 11.7152L3.97518 11.6301C4.04225 11.5329 4.09946 11.4498 4.16259 11.3709L4.35198 11.1258C4.39735 11.0711 4.44075 11.0205 4.48415 10.9678L4.76034 10.6457L5.47645 9.91456L5.871 9.56011C5.93216 9.50339 6.00121 9.4487 6.06631 9.39604L6.1827 9.30085C6.23596 9.25831 6.2912 9.21173 6.34644 9.17122L6.43719 9.10235C6.56739 9.00311 6.69956 8.90386 6.83174 8.81069C6.95602 8.71954 7.08622 8.63245 7.21445 8.54941L7.32296 8.47852C7.37227 8.44611 7.42159 8.4137 7.47091 8.38332L7.5952 8.30433C7.67213 8.25774 7.7471 8.20913 7.82404 8.1666L8.32315 7.88506C8.43362 7.82227 8.54607 7.76556 8.65851 7.70682L8.82226 7.62378C9.12606 7.47794 9.47721 7.31388 9.81653 7.1721C10.3788 6.93715 10.9923 6.7184 11.6887 6.5037C12.2154 6.34369 12.7481 6.20799 13.3123 6.08849C13.7443 5.99734 14.1724 5.91835 14.5827 5.85759C14.8688 5.81505 15.139 5.78062 15.4113 5.75631C15.6026 5.73808 15.7052 5.73403 15.7052 5.73403L15.719 5.94063C15.7171 5.94063 15.6184 5.94873 15.433 5.97101C15.2337 5.99532 14.9516 6.03785 14.6202 6.09456C14.2237 6.16343 13.8015 6.25052 13.3695 6.3518C12.8605 6.47332 12.3219 6.62118 11.7715 6.79334C11.0909 7.01007 10.4912 7.23489 9.93686 7.47794C9.60741 7.61973 9.27599 7.77974 8.96824 7.93367L8.92681 7.95392C8.61906 8.11596 8.29947 8.28407 7.98975 8.47244C7.91478 8.517 7.84179 8.56156 7.7688 8.60612L7.67805 8.66283C7.61887 8.69929 7.55969 8.73777 7.5005 8.77626L7.392 8.84917C7.26969 8.93222 7.14541 9.01526 7.02112 9.10438C6.885 9.19958 6.7548 9.30085 6.6246 9.40009L6.54766 9.45681C6.49637 9.49529 6.44902 9.53377 6.40168 9.57428L6.27739 9.67758C6.21426 9.72822 6.15311 9.77885 6.09195 9.83557L5.86509 10.0361C5.81577 10.0806 5.76842 10.1272 5.7191 10.1738L5.21999 10.6721L4.62422 11.3607L4.44075 11.6038C4.37762 11.6807 4.32239 11.7618 4.26715 11.8428L4.20599 11.9279C4.16654 11.9846 4.12708 12.0413 4.08565 12.1L3.89232 12.4038C3.87457 12.4302 3.85681 12.4565 3.84301 12.4828L3.76607 12.6165C3.71675 12.7056 3.66546 12.7947 3.61219 12.8839L3.21764 13.7001C2.91383 14.3949 2.67908 15.1524 2.51928 15.9544C2.37922 16.6654 2.29833 17.4087 2.27663 18.1642C2.2648 18.4863 2.27269 18.8022 2.27861 19.106L2.28255 19.2012L2.31017 19.6914C2.31214 19.7319 2.31412 19.7704 2.31609 19.8109L2.34962 20.1633C2.40684 20.7872 2.49955 21.3563 2.58241 21.8424C2.61398 22.0105 2.64554 22.1705 2.6771 22.3245L2.7205 22.5371C2.7422 22.6445 2.76588 22.7458 2.78758 22.843L2.85465 23.1205C2.91186 23.3757 2.96907 23.5863 3.01642 23.7565L3.06376 23.9408C3.11308 24.1271 3.1407 24.2264 3.1407 24.2264L2.95132 24.279Z" fill="black"/>
<path d="M15.7131 5.83328C15.7131 5.83328 15.6046 5.8353 15.4014 5.84746C15.1982 5.85961 14.9023 5.87986 14.5255 5.91632C14.1487 5.95481 13.695 6.00544 13.1742 6.08646C12.6534 6.16748 12.0675 6.26875 11.4342 6.41053C10.8029 6.55029 10.1223 6.7265 9.41608 6.9574C9.06296 7.07083 8.70391 7.20248 8.34093 7.34224C7.97794 7.48807 7.60903 7.642 7.24407 7.81619C6.87911 7.99241 6.5102 8.17875 6.15313 8.39345L6.01701 8.47244C5.97164 8.49877 5.92824 8.52713 5.88484 8.55548C5.79409 8.61017 5.70729 8.66688 5.61654 8.72359C5.44294 8.84309 5.26342 8.95854 5.09376 9.08615C5.00893 9.15096 4.92016 9.21173 4.8373 9.27857C4.75445 9.34541 4.66962 9.41224 4.58479 9.47908C4.49996 9.54795 4.42302 9.62087 4.34017 9.69176L4.21983 9.79911C4.1784 9.83354 4.14092 9.87202 4.10146 9.91051L3.8667 10.1353L3.64181 10.3703C3.56684 10.4493 3.49582 10.5323 3.42481 10.6154L3.31828 10.7349L3.26501 10.7977L3.21569 10.8604L3.01447 11.1177C2.9474 11.2048 2.88821 11.2959 2.82509 11.383L2.73039 11.5167C2.7008 11.5633 2.67318 11.6078 2.64359 11.6524L2.46999 11.9299C2.41672 12.023 2.36346 12.1203 2.31217 12.2155C2.28652 12.2641 2.25693 12.3107 2.23523 12.3593L2.16421 12.5071C2.11884 12.6044 2.06755 12.7016 2.02612 12.8008C1.98469 12.9001 1.94326 13.0013 1.90381 13.1006C1.88408 13.1492 1.86041 13.1998 1.84265 13.2505L1.78939 13.4044C1.75585 13.5057 1.71837 13.6069 1.68483 13.7082C1.65524 13.8115 1.62565 13.9148 1.59803 14.0161L1.55463 14.17C1.54082 14.2227 1.53095 14.2753 1.51715 14.326C1.49545 14.4293 1.47177 14.5326 1.4481 14.6359C1.42443 14.7392 1.41062 14.8445 1.39286 14.9478C1.37511 15.0511 1.35735 15.1524 1.34354 15.2577C1.33171 15.361 1.31987 15.4643 1.30803 15.5656C1.2232 16.3879 1.23504 17.192 1.30606 17.9475C1.31395 18.0427 1.32184 18.1358 1.33171 18.231C1.34354 18.3222 1.35538 18.4154 1.36919 18.5065C1.39286 18.6888 1.41259 18.8691 1.4481 19.0473C1.47966 19.2215 1.51123 19.3957 1.54082 19.5638C1.5783 19.7339 1.61578 19.898 1.65129 20.06C1.66905 20.139 1.68483 20.22 1.70456 20.299C1.72429 20.378 1.74599 20.455 1.76571 20.532C1.80517 20.6859 1.84462 20.8378 1.88211 20.9836C1.96694 21.2733 2.04979 21.5467 2.1287 21.8039C2.2155 22.0612 2.29639 22.2981 2.37135 22.5189C2.44829 22.7397 2.5272 22.9382 2.59427 23.1184C2.62978 23.2096 2.66135 23.2947 2.69291 23.3737C2.72448 23.4547 2.75604 23.5276 2.78366 23.5965C2.84087 23.7362 2.88821 23.8557 2.92964 23.9509C3.00855 24.1413 3.04998 24.2446 3.04998 24.2446C3.04998 24.2446 3.00461 24.1433 2.92175 23.9529C2.88032 23.8577 2.82706 23.7423 2.76788 23.6046C2.73828 23.5357 2.70475 23.4628 2.67121 23.3818C2.63965 23.3028 2.60414 23.2157 2.56863 23.1266C2.49958 22.9463 2.41475 22.7478 2.33387 22.529C2.25496 22.3103 2.16816 22.0713 2.07544 21.8181C1.99258 21.5629 1.90381 21.2874 1.81503 20.9978C1.7736 20.8499 1.73218 20.7021 1.69075 20.5482C1.66905 20.4712 1.64735 20.3922 1.62565 20.3132C1.60395 20.2342 1.58619 20.1532 1.56646 20.0742C1.52898 19.9122 1.48953 19.7461 1.45007 19.5759C1.41851 19.4058 1.38497 19.2336 1.35143 19.0554C1.31395 18.8792 1.29028 18.6969 1.26463 18.5146C1.24885 18.4235 1.23701 18.3303 1.2232 18.2371C1.21137 18.1419 1.20348 18.0488 1.19361 17.9536C1.11273 17.192 1.08906 16.3798 1.17389 15.5453C1.18572 15.442 1.19559 15.3347 1.20742 15.2314C1.22123 15.1281 1.24096 15.0227 1.25674 14.9174C1.2745 14.8141 1.28831 14.7068 1.31198 14.6035C1.33565 14.5022 1.35735 14.3989 1.38103 14.2936C1.39286 14.2409 1.40273 14.1883 1.41653 14.1356L1.45994 13.9796C1.48953 13.8763 1.51912 13.773 1.54871 13.6657C1.58027 13.5624 1.61776 13.4591 1.65327 13.3558L1.70653 13.1998C1.72231 13.1472 1.74599 13.0965 1.76769 13.0459C1.80911 12.9446 1.85054 12.8434 1.89197 12.7401C1.93537 12.6388 1.98666 12.5395 2.03204 12.4403L2.10306 12.2904C2.12673 12.2398 2.15435 12.1932 2.17999 12.1446C2.23326 12.0474 2.28652 11.9522 2.33979 11.8529L2.51536 11.5693C2.54495 11.5228 2.57257 11.4742 2.60216 11.4296L2.69686 11.2919C2.76196 11.2007 2.82114 11.1096 2.89019 11.0205L3.09535 10.7592L3.14665 10.6944L3.20188 10.6316L3.31039 10.504C3.3814 10.4209 3.4544 10.3358 3.53133 10.2589L3.76017 10.0219L4.00085 9.79303C4.04228 9.75657 4.07976 9.71606 4.12119 9.6796L4.24547 9.57226C4.3303 9.50136 4.40921 9.42642 4.49602 9.35756C4.58282 9.29072 4.66567 9.22388 4.7505 9.15501C4.83533 9.08412 4.9241 9.02538 5.01091 8.96057C5.18451 8.82892 5.36403 8.71549 5.54158 8.59396C5.63233 8.53725 5.7211 8.48256 5.81185 8.42585C5.85722 8.39952 5.90259 8.36914 5.94797 8.34281L6.08409 8.26382C6.44905 8.04912 6.8219 7.86278 7.18883 7.68656C7.37427 7.60149 7.55774 7.51643 7.74318 7.43946C7.92862 7.35844 8.11406 7.28958 8.29555 7.21666C8.66446 7.08095 9.02547 6.95335 9.38254 6.84398C10.0947 6.62118 10.7812 6.45307 11.4184 6.31939C12.0537 6.18368 12.6435 6.09456 13.1663 6.02367C13.6891 5.95481 14.1468 5.91227 14.5255 5.88391C14.9023 5.85353 15.2002 5.84341 15.4034 5.8353C15.6046 5.83328 15.7131 5.83328 15.7131 5.83328Z" fill="black"/>
<path d="M2.95729 24.2892L2.63376 23.5539C2.616 23.5134 2.59628 23.4689 2.57852 23.4263L2.39506 22.9645C2.34574 22.841 2.29247 22.7113 2.24118 22.5716L1.98275 21.8586C1.89595 21.5892 1.80717 21.3178 1.7184 21.0322C1.67697 20.8844 1.63554 20.7345 1.59411 20.5806L1.52901 20.3476C1.5152 20.2889 1.49942 20.2302 1.48759 20.1714L1.2548 19.0817C1.22718 18.9481 1.20745 18.8124 1.18575 18.6726L1.16603 18.5349C1.15222 18.4458 1.13841 18.3506 1.12657 18.2574C1.11671 18.1865 1.11079 18.1156 1.1029 18.0427L1.09501 17.9677C1.00426 17.115 0.998341 16.2968 1.07725 15.5372L1.11079 15.2233C1.12065 15.1544 1.13052 15.0896 1.14235 15.0248L1.17786 14.806C1.18378 14.7331 1.19562 14.6582 1.2114 14.5832C1.23704 14.4759 1.25874 14.3726 1.28045 14.2713L1.29623 14.2024C1.30215 14.17 1.31004 14.1397 1.31793 14.1072L1.4501 13.6333C1.47969 13.5361 1.51323 13.4449 1.5448 13.3518L1.6099 13.1654C1.62173 13.131 1.63554 13.0945 1.64935 13.0621L1.79534 12.6996C1.82493 12.6347 1.85452 12.5699 1.88608 12.5071L2.01037 12.2459C2.02812 12.2094 2.04785 12.1729 2.06758 12.1385L2.25104 11.8043L2.45424 11.4762C2.47594 11.4397 2.49764 11.4053 2.52131 11.3709L2.616 11.2352C2.64165 11.1987 2.66927 11.1622 2.69294 11.1238C2.7324 11.0691 2.77185 11.0124 2.81131 10.9577L3.27491 10.3905C3.33409 10.3197 3.39525 10.2508 3.45837 10.186L3.68721 9.94697L3.96735 9.67961C3.99496 9.65328 4.02258 9.62695 4.05217 9.60062L4.17646 9.49327C4.21 9.46289 4.24156 9.43656 4.27312 9.4082C4.32442 9.36364 4.37571 9.31908 4.42897 9.27655L4.68346 9.07401C4.7387 9.02945 4.79788 8.98691 4.85706 8.94235L4.94583 8.87754C5.06617 8.78842 5.19046 8.70335 5.31277 8.62233L5.8099 8.30434C5.83752 8.28611 5.86514 8.2699 5.89276 8.25572L6.02888 8.17673C6.41751 7.94786 6.80812 7.75544 7.14152 7.59543C7.33879 7.50428 7.52029 7.42124 7.70178 7.3463C7.84185 7.28554 7.98586 7.22882 8.1279 7.17211L8.25415 7.1235C8.66646 6.97159 9.02353 6.84804 9.34904 6.74677C9.99216 6.54625 10.6609 6.37408 11.3908 6.22015C11.9412 6.10267 12.4976 6.0095 13.1486 5.92241C13.6003 5.86164 14.0462 5.81506 14.5137 5.78063C14.9024 5.75025 15.2121 5.74012 15.3955 5.73202C15.5593 5.72999 15.6619 5.72797 15.6974 5.72797C15.7053 5.72797 15.7072 5.72797 15.7072 5.72797L15.7112 5.83126L15.7092 5.90215L15.7132 5.93659C15.7132 5.93659 15.6047 5.93861 15.4054 5.95076C15.2042 5.96089 14.9083 5.98317 14.5354 6.0176C14.0758 6.06216 13.6339 6.11888 13.188 6.18774C12.5745 6.28294 12.0083 6.38826 11.4559 6.51181C10.73 6.67385 10.073 6.85209 9.4457 7.05666C9.13203 7.15591 8.79272 7.27743 8.37647 7.43744C8.07858 7.55694 7.68403 7.71898 7.28553 7.90735C6.9837 8.05521 6.5852 8.2537 6.20248 8.48055L6.06636 8.55954C6.03283 8.5798 5.99929 8.60208 5.96575 8.62233L5.51794 8.91197C5.39562 8.99501 5.27134 9.07806 5.15298 9.1692L5.0642 9.23402C5.00896 9.27452 4.95373 9.31503 4.90046 9.35959L4.64598 9.56011C4.59863 9.60062 4.54931 9.64316 4.50196 9.68569L4.28496 9.87608C4.25931 9.89836 4.23761 9.91862 4.21394 9.94292L3.93578 10.2103L3.71483 10.4432C3.6517 10.504 3.59844 10.5688 3.53926 10.6356L3.29069 10.9273L3.09144 11.1845C3.04409 11.2453 2.99872 11.3101 2.95532 11.3729L2.81131 11.5795C2.79355 11.6038 2.7758 11.6321 2.75804 11.6605L2.36941 12.3228C2.35363 12.3512 2.33785 12.3775 2.32404 12.4059L2.20962 12.6449C2.17805 12.7097 2.14451 12.7745 2.1169 12.8413L1.97091 13.1958C1.9571 13.2262 1.94724 13.2545 1.9354 13.2849L1.64935 14.1984C1.64343 14.2227 1.63554 14.2531 1.62962 14.2794L1.5448 14.6582C1.53099 14.723 1.52112 14.7858 1.51126 14.8526L1.47772 15.0491C1.46588 15.122 1.45405 15.1969 1.44418 15.2699L1.41065 15.5757C1.33371 16.3332 1.33174 17.1272 1.40867 17.9374L1.41262 17.99C1.41854 18.065 1.42643 18.1419 1.43432 18.2169C1.44616 18.308 1.45799 18.3992 1.46983 18.4903L1.48759 18.6179C1.50534 18.7556 1.5231 18.8913 1.54874 19.025L1.64146 19.5456L1.76377 20.0965C1.77758 20.1552 1.79139 20.216 1.8052 20.2747L1.98472 20.9553C2.05574 21.2044 2.12873 21.4414 2.19778 21.6682L2.22934 21.7736L2.47199 22.4845C2.52328 22.6303 2.57458 22.766 2.6239 22.8957L2.79158 23.3372C2.81131 23.3899 2.83104 23.4385 2.85076 23.4871L3.14668 24.2082L2.95729 24.2892Z" fill="black"/>
<path d="M55.8726 51.9285C55.8726 53.0728 55.4406 54.0491 54.5765 54.8512C53.7085 55.6553 52.6373 56.0563 51.355 56.0563C50.0589 56.0563 48.9798 55.6553 48.1157 54.8512C47.2516 54.0491 46.8196 53.0749 46.8196 51.9285V47.3712H49.9701V53.7068C49.9701 54.7864 50.4317 55.3251 51.355 55.3251C52.2644 55.3251 52.7221 54.7864 52.7221 53.7068V48.791C52.7221 47.4502 52.4065 46.2714 51.7791 45.2587L47.8375 38.9615C47.1589 37.8698 46.8196 36.6586 46.8196 35.3299V31.4815C46.8196 30.3392 47.2516 29.365 48.1157 28.5609C48.9817 27.7588 50.0609 27.3577 51.355 27.3577C52.6373 27.3577 53.7085 27.7588 54.5765 28.5609C55.4406 29.365 55.8726 30.3392 55.8726 31.4815V36.0408H52.7221V29.7052C52.7221 28.6257 52.2644 28.0869 51.355 28.0869C50.4317 28.0869 49.9701 28.6257 49.9701 29.7052V34.4407C49.9701 35.7694 50.2857 36.9401 50.9131 37.9529L54.8547 44.25C55.5353 45.3417 55.8746 46.559 55.8746 47.9019V51.9285H55.8726Z" fill="black"/>
<path d="M69.7135 55.8578H64.5803V55.1287H65.5805V41.2705H62.4261V55.1287H63.4065V55.8578H58.2931V55.1287H59.2736V28.2854H58.2931V27.5562H63.4065V28.2854H62.4261V40.5414H65.5805V28.2854H64.5803V27.5562H69.7135V28.2854H68.7152V55.1287H69.7135V55.8578Z" fill="black"/>
<path d="M76.8647 55.8578H71.7513V55.1287H72.7318V28.2854H71.7513V27.5562H76.8647V28.2854H75.8863V55.1287H76.8647V55.8578Z" fill="black"/>
<path d="M89.1491 28.2854H88.1687V55.8578H85.6495L80.8813 33.8291V55.1266H81.8617V55.8558H78.9204V55.1266H79.8989V28.2854H78.9204V27.5562H82.8994L87.1862 47.2132V28.2854H86.2058V27.5562H89.1472V28.2854H89.1491Z" fill="black"/>
<path d="M100.97 55.8578H91.1258V55.1287H92.1063V28.2854H91.1258V27.5562H100.97V36.0429H97.8174V28.2874H95.2607V40.5434H98.9912V41.2726H95.2607V55.1307H97.8174V47.3732H100.97V55.8578Z" fill="black"/>
<path d="M26.4863 28.2126C25.5473 27.362 24.3597 26.9326 22.9551 26.9326C21.5505 26.9326 20.3589 27.364 19.412 28.2126C18.4533 29.0755 17.964 30.1773 17.964 31.4837V36.4684H21.947V29.7074C21.947 28.6582 22.4303 28.5144 22.9551 28.5144C23.4779 28.5144 23.9612 28.6582 23.9612 29.7074V38.9252C23.9612 39.2574 23.8507 39.5329 23.6219 39.7678C23.3931 40.0028 23.1248 40.1162 22.7992 40.1162H19.9821V41.7001H22.7992C23.1267 41.7001 23.3931 41.8135 23.6219 42.0485C23.8507 42.2834 23.9612 42.5589 23.9612 42.8911V53.709C23.9612 54.7561 23.4779 54.8999 22.9551 54.8999C22.4303 54.8999 21.947 54.7561 21.947 53.709V46.946H17.962V51.9306C17.962 53.2512 18.4513 54.3571 19.412 55.2139C20.357 56.0565 21.5485 56.4818 22.9531 56.4818C24.3577 56.4818 25.5453 56.0545 26.4844 55.2139C27.4412 54.3551 27.9245 53.2533 27.9245 51.9306V44.6674C27.9245 43.0369 27.1827 41.775 25.7189 40.9081C27.1827 40.0737 27.9245 38.8118 27.9245 37.1469V31.4817C27.9245 30.1753 27.4412 29.0755 26.4863 28.2126Z" fill="black"/>
<path d="M38.3525 28.2469C37.3582 27.376 36.143 26.9304 34.7384 26.9304C33.3496 26.9304 32.1364 27.3739 31.1342 28.2449C30.1123 29.1361 29.5954 30.2237 29.5954 31.4815V51.9284C29.5954 53.1862 30.1123 54.2759 31.1342 55.1651C32.1364 56.0381 33.3496 56.4796 34.7384 56.4796C36.143 56.4796 37.3582 56.0381 38.3525 55.1651C39.3685 54.2739 39.8834 53.1842 39.8834 51.9284V31.4815C39.8834 30.2237 39.3705 29.1361 38.3525 28.2469ZM33.5784 29.7052C33.5784 29.3731 33.6889 29.0956 33.9178 28.8606C34.1466 28.6257 34.4149 28.5122 34.7384 28.5122C35.0639 28.5122 35.3322 28.6257 35.5591 28.8606C35.7879 29.0956 35.9004 29.3731 35.9004 29.7052V53.7068C35.9004 54.039 35.7879 54.3165 35.5591 54.5494C35.3322 54.7864 35.0639 54.8978 34.7384 54.8978C34.4149 54.8978 34.1466 54.7864 33.9178 54.5494C33.6889 54.3144 33.5784 54.039 33.5784 53.7068V29.7052Z" fill="black"/>
<path d="M77.0305 23.317L77.0167 23.3676C76.9772 23.3595 76.9358 23.3534 76.8924 23.3534C76.5925 23.3534 76.3479 23.6046 76.3479 23.9104C76.3479 24.1555 76.5018 24.3641 76.7148 24.4391L76.4761 25.2857C76.2354 25.9055 75.1978 25.6402 75.0932 25.2148L75.1702 24.1474C75.4602 24.1332 75.691 23.8922 75.691 23.5904C75.691 23.319 75.5016 23.0922 75.251 23.0415L75.2846 22.5858C75.2846 21.9093 73.3651 21.8587 73.3138 22.4967L73.3414 23.0314C73.0692 23.0597 72.8561 23.2987 72.8561 23.5884C72.8561 23.8963 73.0988 24.1474 73.3986 24.1474C73.4006 24.1474 73.4006 24.1474 73.4026 24.1474L73.4519 25.0163C73.4519 25.6381 72.4833 25.9035 72.0335 25.3526L71.7829 24.3986C71.994 24.3216 72.1459 24.115 72.1459 23.872C72.1459 23.5641 71.9033 23.3129 71.6034 23.3129C71.5699 23.3129 71.5363 23.317 71.5008 23.3251L71.4989 23.3129C71.4989 23.3129 71.3095 22.7985 70.2541 22.9058L71.6014 26.58H76.8648L78.2417 22.9564C78.2457 22.9605 77.496 22.6445 77.0305 23.317Z" fill="black"/>
</svg>
